<svg width="24" height="24" viewBox="0 0 24 24" fill="none" xmlns="http://www.w3.org/2000/svg">
<path d="M9.06374 5.42525C9.01945 5.37673 8.98868 5.31743 8.97452 5.25328C8.96036 5.18912 8.9633 5.12238 8.98305 5.05972C9.00279 4.99706 9.03865 4.94069 9.08704 4.89625C9.13542 4.85181 9.19463 4.82086 9.25874 4.8065C10.158 4.60101 11.0776 4.49817 12 4.49994C15.27 4.49994 18.2409 5.74307 20.5931 8.09525C22.3584 9.86057 23.1525 11.6221 23.1853 11.6962C23.2279 11.7921 23.25 11.8959 23.25 12.0009C23.25 12.1058 23.2279 12.2096 23.1853 12.3056C23.1525 12.3796 22.3584 14.1403 20.5931 15.9056C20.3256 16.1718 20.0509 16.424 19.7691 16.6621C19.6949 16.7251 19.5992 16.7568 19.5021 16.7505C19.405 16.7442 19.3141 16.7004 19.2487 16.6284L9.06374 5.42525ZM20.055 19.7456C20.1226 19.8182 20.1752 19.9036 20.2095 19.9966C20.2439 20.0897 20.2595 20.1887 20.2554 20.2879C20.2512 20.3871 20.2275 20.4844 20.1854 20.5743C20.1434 20.6642 20.0839 20.7449 20.0105 20.8116C19.937 20.8784 19.851 20.9299 19.7575 20.9632C19.664 20.9965 19.5649 21.0108 19.4657 21.0055C19.3666 21.0002 19.2696 20.9752 19.1802 20.9321C19.0908 20.889 19.0109 20.8286 18.945 20.7543L16.875 18.4809C15.3398 19.1599 13.6786 19.5071 12 19.4999C8.72999 19.4999 5.75905 18.2568 3.40687 15.9056C1.64155 14.1403 0.843741 12.3796 0.814679 12.3056C0.772035 12.2096 0.75 12.1058 0.75 12.0009C0.75 11.8959 0.772035 11.7921 0.814679 11.6962C0.843741 11.6249 1.64155 9.86057 3.40687 8.09525C4.11214 7.38673 4.89887 6.76427 5.75062 6.24088L3.94499 4.25432C3.87737 4.18167 3.82483 4.09633 3.79043 4.00323C3.75603 3.91014 3.74045 3.81114 3.7446 3.71198C3.74874 3.61282 3.77252 3.51546 3.81457 3.42556C3.85661 3.33566 3.91608 3.255 3.98953 3.18825C4.06298 3.1215 4.14895 3.06999 4.24245 3.03671C4.33595 3.00343 4.43513 2.98904 4.53423 2.99437C4.63334 2.9997 4.7304 3.02465 4.81979 3.06777C4.90918 3.11089 4.98913 3.17132 5.05499 3.24557L20.055 19.7456ZM13.9153 15.2221L8.97562 9.78463C8.46662 10.482 8.21386 11.3337 8.26002 12.1959C8.30618 13.058 8.64844 13.8779 9.22899 14.5169C9.80955 15.156 10.5928 15.5751 11.4466 15.7036C12.3004 15.8321 13.1724 15.662 13.9153 15.2221Z" fill="#D4D4D4"/>
</svg>
