<svg width="178" height="24" viewBox="0 0 178 24" fill="none" xmlns="http://www.w3.org/2000/svg">
<path d="M12 5C8.13401 5 5 8.13401 5 12C5 15.866 8.13401 19 12 19C14.7924 19 17.2029 17.3649 18.3264 15H21H22.5859C21.2801 19.617 17.0351 23 12 23C5.92487 23 1 18.0751 1 12C1 5.92487 5.92487 1 12 1C17.0351 1 21.2801 4.38299 22.5859 9H21H18.3264C17.2029 6.63505 14.7924 5 12 5Z" fill="url(#paint0_linear_1_17)"/>
<path d="M37.496 12.24C37.496 11.5467 37.6187 10.864 37.864 10.192C38.12 9.52 38.488 8.912 38.968 8.368C39.448 7.824 40.0347 7.392 40.728 7.072C41.4213 6.74133 42.2107 6.576 43.096 6.576C44.1307 6.576 45.032 6.80533 45.8 7.264C46.568 7.72267 47.1387 8.32 47.512 9.056L45.816 10.224C45.624 9.79733 45.3733 9.46133 45.064 9.216C44.7547 8.97067 44.4187 8.79467 44.056 8.688C43.704 8.58133 43.3627 8.528 43.032 8.528C42.4773 8.528 41.992 8.64 41.576 8.864C41.1707 9.088 40.8293 9.38133 40.552 9.744C40.2747 10.1067 40.0667 10.512 39.928 10.96C39.8 11.408 39.736 11.856 39.736 12.304C39.736 12.976 39.8747 13.6053 40.152 14.192C40.4293 14.768 40.8187 15.2373 41.32 15.6C41.8213 15.9627 42.4027 16.144 43.064 16.144C43.4053 16.144 43.7573 16.0853 44.12 15.968C44.4933 15.8507 44.8347 15.664 45.144 15.408C45.4533 15.152 45.6933 14.8213 45.864 14.416L47.672 15.456C47.4373 16.0213 47.0693 16.5013 46.568 16.896C46.0667 17.28 45.5013 17.5787 44.872 17.792C44.2427 17.9947 43.6187 18.096 43 18.096C42.1893 18.096 41.448 17.9307 40.776 17.6C40.1147 17.2587 39.5387 16.8107 39.048 16.256C38.5573 15.6907 38.1733 15.0613 37.896 14.368C37.6293 13.664 37.496 12.9547 37.496 12.24ZM54.8601 18.08C54.0281 18.08 53.2708 17.92 52.5881 17.6C51.9161 17.28 51.3348 16.848 50.8441 16.304C50.3641 15.7493 49.9908 15.1307 49.7241 14.448C49.4575 13.7547 49.3241 13.0453 49.3241 12.32C49.3241 11.5627 49.4628 10.8427 49.7401 10.16C50.0175 9.46667 50.4068 8.85333 50.9081 8.32C51.4095 7.776 51.9961 7.34933 52.6681 7.04C53.3508 6.72 54.0975 6.56 54.9081 6.56C55.7295 6.56 56.4761 6.72533 57.1481 7.056C57.8308 7.38667 58.4121 7.82933 58.8921 8.384C59.3828 8.93867 59.7561 9.56267 60.0121 10.256C60.2788 10.9387 60.4121 11.6373 60.4121 12.352C60.4121 13.0987 60.2735 13.8187 59.9961 14.512C59.7188 15.1947 59.3295 15.808 58.8281 16.352C58.3375 16.8853 57.7508 17.3067 57.0681 17.616C56.3961 17.9253 55.6601 18.08 54.8601 18.08ZM51.5641 12.32C51.5641 12.9813 51.6921 13.6 51.9481 14.176C52.2148 14.752 52.5935 15.2213 53.0841 15.584C53.5855 15.9467 54.1828 16.128 54.8761 16.128C55.5908 16.128 56.1935 15.9413 56.6841 15.568C57.1748 15.1947 57.5481 14.7147 57.8041 14.128C58.0601 13.5413 58.1881 12.9387 58.1881 12.32C58.1881 11.6587 58.0548 11.04 57.7881 10.464C57.5215 9.888 57.1375 9.424 56.6361 9.072C56.1455 8.70933 55.5588 8.528 54.8761 8.528C54.1615 8.528 53.5588 8.71467 53.0681 9.088C52.5775 9.46133 52.2041 9.94133 51.9481 10.528C51.6921 11.104 51.5641 11.7013 51.5641 12.32ZM72.3699 18V10.544L69.4579 16.096H68.2259L65.3139 10.544V18H63.1059V6.64H65.4739L68.8339 13.104L72.2259 6.64H74.5779V18H72.3699ZM77.9496 18V6.64H82.7656C83.2883 6.64 83.7683 6.74667 84.2056 6.96C84.6536 7.17333 85.0376 7.46133 85.3576 7.824C85.6776 8.18667 85.9283 8.592 86.1096 9.04C86.291 9.488 86.3816 9.94667 86.3816 10.416C86.3816 11.056 86.2323 11.664 85.9336 12.24C85.635 12.816 85.219 13.2853 84.6856 13.648C84.163 14.0107 83.5496 14.192 82.8456 14.192H80.1576V18H77.9496ZM80.1576 12.256H82.7176C83.123 12.256 83.459 12.0907 83.7256 11.76C84.003 11.4187 84.1416 10.9707 84.1416 10.416C84.1416 9.82933 83.987 9.376 83.6776 9.056C83.3683 8.736 83.0163 8.576 82.6216 8.576H80.1576V12.256ZM91.1939 6.64H93.4339L97.6099 18H95.3379L94.2819 15.168H90.3139L89.2739 18H87.0019L91.1939 6.64ZM93.8819 13.616L92.3139 8.928L90.6819 13.616H93.8819ZM102.064 10.704V18H99.8559V6.64H101.616L107.488 14.128V6.656H109.696V18H107.856L102.064 10.704ZM114.339 6.64L117.139 11.984L119.987 6.64H122.371L118.243 14.032V18H116.051V14L111.939 6.64H114.339ZM131.08 10.704V18H128.872V6.64H130.632L136.503 14.128V6.656H138.712V18H136.872L131.08 10.704ZM145.163 6.64H147.403L151.579 18H149.307L148.251 15.168H144.283L143.243 18H140.971L145.163 6.64ZM147.851 13.616L146.283 8.928L144.651 13.616H147.851ZM163.089 18V10.544L160.177 16.096H158.945L156.033 10.544V18H153.825V6.64H156.193L159.553 13.104L162.945 6.64H165.297V18H163.089ZM176.556 16.064V18H168.668V6.64H176.412V8.576H170.876V11.312H175.66V13.104H170.876V16.064H176.556Z" fill="#242731"/>
<defs>
<linearGradient id="paint0_linear_1_17" x1="16.6498" y1="1" x2="11.6142" y2="22.959" gradientUnits="userSpaceOnUse">
<stop stop-color="#9ECBFF"/>
<stop offset="0.411458" stop-color="#6FA0FF"/>
<stop offset="1" stop-color="#AF93FF"/>
</linearGradient>
</defs>
</svg>
